<?xml version="1.0" encoding="UTF-8"?>
<svg width="252px" height="251px" viewBox="0 0 252 251" version="1.1" xmlns="http://www.w3.org/2000/svg" xmlns:xlink="http://www.w3.org/1999/xlink">
    <!-- Generator: Sketch 48.2 (47327) - http://www.bohemiancoding.com/sketch -->
    <title>icon</title>
    <desc>Created with Sketch.</desc>
    <defs></defs>
    <g id="Page-1" stroke="none" stroke-width="1" fill="none" fill-rule="evenodd">
        <path d="M94.75,176.927083 L94.75,72.5416667 L188.5,126.260417 L94.75,176.927083 Z M137.416667,20.8854167 C189.979167,26.1354167 231.166667,70.6979167 231.166667,124.739583 C231.166667,140.020833 227.791667,154.489583 221.875,167.583333 L239.979167,178.0625 C247.604167,161.864583 252,143.84375 252,124.739583 C252,59.0833333 201.5625,5.32291667 137.416667,-8.8817842e-16 L137.416667,20.8854167 Z M20.8333333,124.739583 C20.8333333,70.6979167 62.0208333,26.1354167 114.583333,20.8854167 L114.583333,-8.8817842e-16 C50.4375,5.32291667 0,59.0833333 0,124.739583 C0,143.833333 4.0949707,162.141439 11.7199707,178.339355 L30.1145833,167.572917 C24.1979167,154.479167 20.8333333,140.010417 20.8333333,124.739583 Z M126,230.125 C91.2604167,230.125 60.5,212.927083 41.5729167,186.625 L23.137207,197.166667 C45.7101237,229.6875 83.46875,251 126,251 C168.520833,251 206.03125,229.677083 228.614583,197.166667 L210.416667,186.635417 C191.489583,212.916667 160.739583,230.125 126,230.125 Z" id="icon" fill="#087F8C" fill-rule="nonzero"></path>
    </g>
</svg>